<svg width="67" height="134" viewBox="0 0 67 134" fill="none" xmlns="http://www.w3.org/2000/svg">
<path d="M1.00034 37.7649C0.982193 34.6336 1.4098 31.5157 2.27033 28.5049C4.44033 21.0449 8.88034 15.4149 15.1203 12.2249C20.9218 9.37035 27.5465 8.66183 33.8204 10.2249C45.8204 13.0449 57.3703 23.9149 54.2803 41.1249L54.1703 41.7049C53.0114 47.721 50.5768 53.4189 47.0303 58.4149C26.9303 86.9749 29.6203 93.4149 29.6503 93.4149L30.2603 94.4749H25.8003L25.8803 93.7049C26.8803 84.3249 16.1403 69.7049 9.68033 61.7649C4.76881 55.8467 1.78533 48.5677 1.13035 40.9049C1.04368 39.8382 1.00034 38.7916 1.00034 37.7649ZM53.3804 35.6149C53.3804 22.3349 43.6203 13.9349 33.5003 11.5649C22.3103 8.94488 8.18035 13.2449 3.63035 28.8949C2.54652 32.7555 2.1771 36.7816 2.54032 40.7749C3.17479 48.152 6.05004 55.1586 10.7803 60.8549C17.2103 68.7149 27.7803 83.1849 27.3403 93.0549H28.1803C27.8603 90.2849 29.0803 81.4949 45.9203 57.5749C49.3528 52.7407 51.7091 47.2268 52.8303 41.4049L52.9403 40.8349C53.2375 39.111 53.3814 37.3642 53.3703 35.6149H53.3804Z" fill="#33343D"/>
<path d="M31.5005 91.6548L31.5005 121.865C31.5005 122.796 31.1307 123.688 30.4724 124.347C29.8142 125.005 28.9214 125.375 27.9905 125.375C27.0596 125.375 26.1668 125.005 25.5085 124.347C24.8503 123.688 24.4805 122.796 24.4805 121.865L24.4805 91.6548H31.4805H31.5005Z" fill="#33343D"/>
<path d="M31.5005 95.8748V91.6548H24.4705V95.8748H31.5005Z" fill="#F0E4E4"/>
<path d="M11.6001 64.1247L12.7401 63.3046C17.0501 69.3047 21.7401 72.3047 26.7401 72.3047C35.2701 72.3047 41.9001 63.3846 41.9601 63.3046L43.1001 64.1347C42.8101 64.5247 36.0001 73.7446 26.7401 73.7246C21.2701 73.7246 16.1801 70.5047 11.6001 64.1247Z" fill="#33343D"/>
<path d="M2.00034 37.7649C1.98219 34.6336 2.4098 31.5157 3.27033 28.5049C5.44033 21.0449 9.88034 15.4149 16.1203 12.2249C21.9218 9.37035 28.5465 8.66183 34.8204 10.2249C46.8204 13.0449 58.3703 23.9149 55.2803 41.1249L55.1703 41.7049C54.0114 47.721 51.5768 53.4189 48.0303 58.4149C27.9303 86.9749 30.6203 93.4149 30.6503 93.4149L31.2603 94.4749H26.8003L26.8803 93.7049C27.8803 84.3249 17.1403 69.7049 10.6803 61.7649C5.76881 55.8467 2.78533 48.5677 2.13035 40.9049C2.04368 39.8382 2.00034 38.7916 2.00034 37.7649ZM54.3804 35.6149C54.3804 22.3349 44.6203 13.9349 34.5003 11.5649C23.3103 8.94488 9.18035 13.2449 4.63035 28.8949C3.54652 32.7555 3.1771 36.7816 3.54032 40.7749C4.17479 48.152 7.05004 55.1586 11.7803 60.8549C18.2103 68.7149 28.7803 83.1849 28.3403 93.0549H29.1803C28.8603 90.2849 30.0803 81.4949 46.9203 57.5749C50.3528 52.7407 52.7091 47.2268 53.8303 41.4049L53.9403 40.8349C54.2375 39.111 54.3814 37.3642 54.3703 35.6149H54.3804Z" fill="#33343D"/>
<path d="M32.5005 91.6548V121.865C32.5005 122.796 32.1307 123.688 31.4724 124.347C30.8142 125.005 29.9214 125.375 28.9905 125.375C28.0596 125.375 27.1668 125.005 26.5085 124.347C25.8503 123.688 25.4805 122.796 25.4805 121.865L25.4805 91.6548H32.4805H32.5005Z" fill="#33343D"/>
<path d="M32.5005 95.8748V91.6548H25.4705V95.8748H32.5005Z" fill="#F0E4E4"/>
<path d="M12.6001 64.1247L13.7401 63.3046C18.0501 69.3047 22.7401 72.3047 27.7401 72.3047C36.2701 72.3047 42.9001 63.3846 42.9601 63.3046L44.1001 64.1347C43.8101 64.5247 37.0001 73.7446 27.7401 73.7246C22.2701 73.7246 17.1801 70.5047 12.6001 64.1247Z" fill="#33343D"/>
<path d="M3.00034 37.7649C2.98219 34.6336 3.4098 31.5157 4.27033 28.5049C6.44033 21.0449 10.8803 15.4149 17.1203 12.2249C22.9218 9.37035 29.5465 8.66183 35.8204 10.2249C47.8204 13.0449 59.3703 23.9149 56.2803 41.1249L56.1703 41.7049C55.0114 47.721 52.5768 53.4189 49.0303 58.4149C28.9303 86.9749 31.6203 93.4149 31.6503 93.4149L32.2603 94.4749H27.8003L27.8803 93.7049C28.8803 84.3249 18.1403 69.7049 11.6803 61.7649C6.76881 55.8467 3.78533 48.5677 3.13035 40.9049C3.04368 39.8382 3.00034 38.7916 3.00034 37.7649ZM55.3804 35.6149C55.3804 22.3349 45.6203 13.9349 35.5003 11.5649C24.3103 8.94488 10.1803 13.2449 5.63035 28.8949C4.54652 32.7555 4.1771 36.7816 4.54032 40.7749C5.17479 48.152 8.05004 55.1586 12.7803 60.8549C19.2103 68.7149 29.7803 83.1849 29.3403 93.0549H30.1803C29.8603 90.2849 31.0803 81.4949 47.9203 57.5749C51.3528 52.7407 53.7091 47.2268 54.8303 41.4049L54.9403 40.8349C55.2375 39.111 55.3814 37.3642 55.3703 35.6149H55.3804Z" fill="#33343D"/>
<path d="M33.5005 91.6548V121.865C33.5005 122.796 33.1307 123.688 32.4724 124.347C31.8142 125.005 30.9214 125.375 29.9905 125.375C29.0596 125.375 28.1668 125.005 27.5085 124.347C26.8503 123.688 26.4805 122.796 26.4805 121.865L26.4805 91.6548H33.4805H33.5005Z" fill="#33343D"/>
<path d="M33.5005 95.8748V91.6548H26.4705V95.8748H33.5005Z" fill="#F0E4E4"/>
<path d="M13.6001 64.1247L14.7401 63.3046C19.0501 69.3047 23.7401 72.3047 28.7401 72.3047C37.2701 72.3047 43.9001 63.3846 43.9601 63.3046L45.1001 64.1347C44.8101 64.5247 38.0001 73.7446 28.7401 73.7246C23.2701 73.7246 18.1801 70.5047 13.6001 64.1247Z" fill="#33343D"/>
<path d="M4.00034 37.7649C3.98219 34.6336 4.4098 31.5157 5.27033 28.5049C7.44033 21.0449 11.8803 15.4149 18.1203 12.2249C23.9218 9.37035 30.5465 8.66183 36.8204 10.2249C48.8204 13.0449 60.3703 23.9149 57.2803 41.1249L57.1703 41.7049C56.0114 47.721 53.5768 53.4189 50.0303 58.4149C29.9303 86.9749 32.6203 93.4149 32.6503 93.4149L33.2603 94.4749H28.8003L28.8803 93.7049C29.8803 84.3249 19.1403 69.7049 12.6803 61.7649C7.76881 55.8467 4.78533 48.5677 4.13035 40.9049C4.04368 39.8382 4.00034 38.7916 4.00034 37.7649ZM56.3804 35.6149C56.3804 22.3349 46.6203 13.9349 36.5003 11.5649C25.3103 8.94488 11.1803 13.2449 6.63035 28.8949C5.54652 32.7555 5.1771 36.7816 5.54032 40.7749C6.17479 48.152 9.05004 55.1586 13.7803 60.8549C20.2103 68.7149 30.7803 83.1849 30.3403 93.0549H31.1803C30.8603 90.2849 32.0803 81.4949 48.9203 57.5749C52.3528 52.7407 54.7091 47.2268 55.8303 41.4049L55.9403 40.8349C56.2375 39.111 56.3814 37.3642 56.3703 35.6149H56.3804Z" fill="#33343D"/>
<path d="M34.5005 91.6548V121.865C34.5005 122.796 34.1307 123.688 33.4724 124.347C32.8142 125.005 31.9214 125.375 30.9905 125.375C30.0596 125.375 29.1668 125.005 28.5085 124.347C27.8503 123.688 27.4805 122.796 27.4805 121.865L27.4805 91.6548H34.4805H34.5005Z" fill="#33343D"/>
<path d="M34.5005 95.8748V91.6548H27.4705V95.8748H34.5005Z" fill="#F0E4E4"/>
<path d="M14.6001 64.1247L15.7401 63.3046C20.0501 69.3047 24.7401 72.3047 29.7401 72.3047C38.2701 72.3047 44.9001 63.3846 44.9601 63.3046L46.1001 64.1347C45.8101 64.5247 39.0001 73.7446 29.7401 73.7246C24.2701 73.7246 19.1801 70.5047 14.6001 64.1247Z" fill="#33343D"/>
<path d="M0.000340726 37.7649C-0.0178066 34.6336 0.409804 31.5157 1.27033 28.5049C3.44033 21.0449 7.88034 15.4149 14.1203 12.2249C19.9218 9.37035 26.5465 8.66183 32.8204 10.2249C44.8204 13.0449 56.3703 23.9149 53.2803 41.1249L53.1703 41.7049C52.0114 47.721 49.5768 53.4189 46.0303 58.4149C25.9303 86.9749 28.6203 93.4149 28.6503 93.4149L29.2603 94.4749H24.8003L24.8803 93.7049C25.8803 84.3249 15.1403 69.7049 8.68033 61.7649C3.76881 55.8467 0.785326 48.5677 0.130346 40.9049C0.0436789 39.8382 0.000340726 38.7916 0.000340726 37.7649ZM52.3804 35.6149C52.3804 22.3349 42.6203 13.9349 32.5003 11.5649C21.3103 8.94488 7.18035 13.2449 2.63035 28.8949C1.54652 32.7555 1.1771 36.7816 1.54032 40.7749C2.17479 48.152 5.05004 55.1586 9.78034 60.8549C16.2103 68.7149 26.7803 83.1849 26.3403 93.0549H27.1803C26.8603 90.2849 28.0803 81.4949 44.9203 57.5749C48.3528 52.7407 50.7091 47.2268 51.8303 41.4049L51.9403 40.8349C52.2375 39.111 52.3814 37.3642 52.3703 35.6149H52.3804Z" fill="#535461"/>
<path d="M30.5005 91.6548L30.5005 121.865C30.5005 122.796 30.1307 123.688 29.4724 124.347C28.8142 125.005 27.9214 125.375 26.9905 125.375C26.0596 125.375 25.1668 125.005 24.5085 124.347C23.8503 123.688 23.4805 122.796 23.4805 121.865L23.4805 91.6548H30.4805H30.5005Z" fill="#535461"/>
<path d="M30.5005 95.8748V91.6548H23.4705V95.8748H30.5005Z" fill="#F0E4E4"/>
<path d="M10.6001 64.1247L11.7401 63.3046C16.0501 69.3047 20.7401 72.3047 25.7401 72.3047C34.2701 72.3047 40.9001 63.3846 40.9601 63.3046L42.1001 64.1347C41.8101 64.5247 35.0001 73.7446 25.7401 73.7246C20.2701 73.7246 15.1801 70.5047 10.6001 64.1247Z" fill="#535461"/>
<path d="M5.80908 3.5H52.1206" stroke="#33343D" stroke-width="2" stroke-linecap="round"/>
<path d="M52.9131 5.99995V0.999954" stroke="#33343D" stroke-width="2" stroke-linecap="round"/>
<path d="M5.41406 5.99995L5.41406 0.999954" stroke="#33343D" stroke-width="2" stroke-linecap="round"/>
<path d="M63.4131 118.123L63.4131 15.2601" stroke="#33343D" stroke-width="2" stroke-linecap="round"/>
<path d="M65.9131 13.5H60.9131" stroke="#33343D" stroke-width="2" stroke-linecap="round"/>
<path d="M65.9131 119H60.9131" stroke="#33343D" stroke-width="2" stroke-linecap="round"/>
<path d="M15.3501 125.126L26.381 131.494" stroke="#33343D" stroke-width="2" stroke-linecap="round"/>
<path d="M24.8022 132.624L28.3378 130.583" stroke="#33343D" stroke-width="2" stroke-linecap="round"/>
<path d="M13.4883 126.092L17.0238 124.051" stroke="#33343D" stroke-width="2" stroke-linecap="round"/>
</svg>
