<svg width="786" height="754" viewBox="0 0 786 754" fill="none" xmlns="http://www.w3.org/2000/svg">
<g filter="url(#filter0_dii_38_7)">
<path fill-rule="evenodd" clip-rule="evenodd" d="M372.781 120.76C409.683 133.194 449.735 126.093 486.872 137.805C527.643 150.663 567.029 166.759 600.987 192.729C640.03 222.589 677.509 256.113 699.223 300.209C722.994 348.482 742.691 403.955 730.845 456.443C718.998 508.939 671.574 544.329 635.183 583.976C600.644 621.604 569.5 665.891 521.811 684.18C474.839 702.194 422.276 693.614 372.781 684.609C328.028 676.467 284.339 661.364 247.763 634.321C213.825 609.23 198.254 567.865 171.136 535.524C143.318 502.348 104.646 479.021 85.1376 440.37C63.5002 397.502 44.4696 348.991 53.1462 301.763C61.8538 254.365 106.7 223.788 132.414 183.031C161.181 137.435 162.303 59.5469 214.492 46.0264C271.693 31.2077 316.786 101.892 372.781 120.76Z" stroke="white" stroke-width="20" shape-rendering="crispEdges"/>
</g>
<path fill-rule="evenodd" clip-rule="evenodd" d="M372.781 120.76C409.683 133.194 449.735 126.093 486.872 137.805C527.643 150.663 567.029 166.759 600.987 192.729C640.03 222.589 677.509 256.113 699.223 300.209C722.994 348.482 742.691 403.955 730.845 456.443C718.998 508.939 671.574 544.329 635.183 583.976C600.644 621.604 569.5 665.891 521.811 684.18C474.839 702.194 422.276 693.614 372.781 684.609C328.028 676.467 284.339 661.364 247.763 634.321C213.825 609.23 198.254 567.865 171.136 535.524C143.318 502.348 104.646 479.021 85.1376 440.37C63.5002 397.502 44.4696 348.991 53.1462 301.763C61.8538 254.365 106.7 223.788 132.414 183.031C161.181 137.435 162.303 59.5469 214.492 46.0264C271.693 31.2077 316.786 101.892 372.781 120.76Z" stroke="#D73F33" stroke-width="4"/>
<defs>
<filter id="filter0_dii_38_7" x="0.00195312" y="0.99585" width="785.388" height="752.747" filterUnits="userSpaceOnUse" color-interpolation-filters="sRGB">
<feFlood flood-opacity="0" result="BackgroundImageFix"/>
<feColorMatrix in="SourceAlpha" type="matrix" values="0 0 0 0 0 0 0 0 0 0 0 0 0 0 0 0 0 0 127 0" result="hardAlpha"/>
<feOffset dy="8"/>
<feGaussianBlur stdDeviation="20.5"/>
<feComposite in2="hardAlpha" operator="out"/>
<feColorMatrix type="matrix" values="0 0 0 0 0 0 0 0 0 0 0 0 0 0 0 0 0 0 0.25 0"/>
<feBlend mode="normal" in2="BackgroundImageFix" result="effect1_dropShadow_38_7"/>
<feBlend mode="normal" in="SourceGraphic" in2="effect1_dropShadow_38_7" result="shape"/>
<feColorMatrix in="SourceAlpha" type="matrix" values="0 0 0 0 0 0 0 0 0 0 0 0 0 0 0 0 0 0 127 0" result="hardAlpha"/>
<feOffset dy="1"/>
<feGaussianBlur stdDeviation="3.5"/>
<feComposite in2="hardAlpha" operator="arithmetic" k2="-1" k3="1"/>
<feColorMatrix type="matrix" values="0 0 0 0 0 0 0 0 0 0 0 0 0 0 0 0 0 0 0.25 0"/>
<feBlend mode="normal" in2="shape" result="effect2_innerShadow_38_7"/>
<feColorMatrix in="SourceAlpha" type="matrix" values="0 0 0 0 0 0 0 0 0 0 0 0 0 0 0 0 0 0 127 0" result="hardAlpha"/>
<feOffset dy="-2"/>
<feGaussianBlur stdDeviation="5"/>
<feComposite in2="hardAlpha" operator="arithmetic" k2="-1" k3="1"/>
<feColorMatrix type="matrix" values="0 0 0 0 0 0 0 0 0 0 0 0 0 0 0 0 0 0 0.25 0"/>
<feBlend mode="normal" in2="effect2_innerShadow_38_7" result="effect3_innerShadow_38_7"/>
</filter>
</defs>
</svg>
