<svg width="2000" height="auto" viewBox="0 0 483 111" fill="none" xmlns="http://www.w3.org/2000/svg">
<path d="M170.329 3.41819L166.062 7.01819L166.862 21.9515C167.262 31.9515 168.329 38.2182 169.796 41.0182C170.996 43.4182 171.529 46.4849 170.996 48.0849C170.329 50.3515 169.662 49.8182 166.329 44.0849C159.662 32.2182 153.129 30.0849 146.329 37.4182C143.529 40.6182 141.396 41.6849 138.996 41.4182C137.129 41.1515 134.196 41.9515 132.462 43.0182C127.929 45.9515 127.262 45.8182 118.729 39.9515C92.0625 21.8182 51.7958 9.28486 25.1292 10.8849C6.06249 11.8182 -0.737506 17.6849 0.0624935 32.4849C0.72916 43.1515 4.99583 51.2849 16.1958 63.2849C26.8625 74.7515 38.7292 83.0182 56.3292 91.1515C71.5292 98.3515 74.7292 98.6182 79.9292 93.0182L83.7958 88.8849L92.1958 92.2182C115.129 101.285 136.196 100.485 144.462 90.0849C147.262 86.4849 148.329 85.9515 153.529 86.3515C157.396 86.4849 159.929 85.9515 160.996 84.7515C162.329 83.0182 163.662 83.4182 170.062 87.2849C181.662 94.2182 189.662 92.8849 193.796 83.1515L195.662 78.4849L205.396 84.2182C214.596 89.5515 215.662 89.8182 225.796 89.8182C235.129 89.8182 236.862 90.2182 239.529 92.7515C243.929 97.2849 250.996 96.8849 255.796 91.8182L259.529 87.8182L270.729 94.4849C276.729 98.0849 283.662 101.552 285.929 101.952C291.529 103.018 297.796 99.5515 299.529 94.6182C300.596 91.5515 302.996 89.5515 309.396 86.3515L317.929 82.2182L321.929 86.2182C326.062 90.2182 326.196 90.2182 339.796 90.2182C352.596 90.0849 353.929 89.8182 356.862 86.8849L360.062 83.6849L364.596 86.4849C368.729 89.1515 371.796 89.4182 404.862 90.4849C446.729 91.6849 449.396 92.3515 460.729 103.285C466.729 109.152 468.862 110.485 472.596 110.485C478.729 110.485 482.462 106.618 482.462 100.085C482.462 87.1515 467.796 76.7515 441.529 71.1515C437.396 70.3515 437.129 69.9515 437.129 64.6182C437.129 53.5515 426.862 46.7515 416.596 51.0182L411.662 53.0182L409.662 48.3515C408.596 45.6849 404.996 36.2182 401.662 27.4182C398.329 18.4849 394.462 9.28486 392.996 6.88486C386.596 -3.38181 370.462 -1.11514 370.462 10.0849C370.462 12.4849 372.862 20.2182 375.796 27.1515C380.462 38.4849 380.729 39.9515 378.729 40.6182C377.529 41.0182 373.929 42.4849 370.729 43.9515L364.996 46.4849L360.596 41.8182C355.129 36.0849 349.796 35.6849 344.062 40.4849C341.262 42.8849 339.796 43.2849 338.729 42.2182C337.396 40.8849 330.596 39.1515 319.662 37.5515C313.529 36.7515 306.329 40.2182 299.129 47.6849C292.462 54.6182 290.462 54.7515 291.396 47.9515C291.929 43.8182 291.529 42.2182 289.262 39.9515C287.796 38.4849 285.262 37.1515 283.796 37.1515C282.196 37.1515 278.729 35.9515 275.796 34.4849C267.529 30.2182 262.862 30.8849 257.129 37.1515L252.196 42.4849L249.129 31.6849C245.529 19.2849 242.862 15.2849 236.462 13.1515C230.729 11.2849 225.262 13.4182 222.862 18.6182C221.396 21.5515 221.529 23.1515 223.129 27.8182C225.796 35.4182 225.662 37.1515 222.329 37.1515C216.596 37.1515 208.996 40.3515 203.529 45.0182C200.329 47.8182 197.796 49.1515 197.529 48.2182C197.129 47.2849 194.862 43.9515 192.329 40.6182C187.796 34.7515 187.796 34.4849 187.796 21.1515C187.796 7.95152 187.662 7.55152 183.929 3.68486C178.996 -1.11514 175.929 -1.24848 170.329 3.41819ZM179.129 9.01819C179.529 9.81819 179.929 16.4849 180.062 24.0849C180.196 35.5515 179.929 37.8182 178.196 38.2182C176.996 38.4849 175.796 37.4182 175.396 35.5515C174.062 30.0849 172.729 12.0849 173.529 9.95152C174.462 7.55152 177.796 7.15152 179.129 9.01819ZM387.929 10.4849C388.596 11.5515 391.796 20.2182 395.262 29.8182C398.596 39.2849 404.596 53.9515 408.462 62.0849L415.662 77.1515H424.062C444.062 77.2849 465.662 84.0849 473.129 92.7515C477.529 97.6849 478.329 102.085 474.996 103.418C473.529 103.952 470.996 102.218 467.129 97.9515C455.929 85.8182 439.529 81.5515 408.996 82.8849C395.929 83.5515 388.862 83.2849 384.062 81.9515C379.396 80.7515 376.862 80.6182 375.929 81.5515C372.462 85.0182 364.729 77.1515 356.996 62.4849L353.929 56.4849L352.862 62.4849C352.329 65.8182 352.329 71.5515 352.729 75.2849C353.262 80.8849 352.996 82.2182 351.129 83.0182C347.262 84.4849 343.262 80.6182 339.929 72.3515C338.196 67.9515 334.996 61.6849 332.996 58.3515C328.996 52.0849 328.196 48.4849 330.329 47.2849C332.996 45.5515 335.662 48.3515 339.262 56.4849C341.396 61.2849 343.529 65.1515 344.062 65.1515C344.596 65.1515 345.662 61.6849 346.462 57.4182C348.596 46.6182 348.996 45.4182 350.996 44.7515C354.196 43.5515 356.862 46.7515 360.862 56.3515C362.862 61.4182 365.262 65.8182 366.062 66.0849C366.862 66.3515 367.796 64.2182 368.329 61.4182C370.196 49.5515 378.329 45.4182 389.262 50.8849C397.262 54.7515 397.396 56.4849 386.329 29.9515C381.929 19.8182 378.462 10.6182 378.462 9.55152C378.462 7.01819 386.462 7.81819 387.929 10.4849ZM54.5958 21.2849C84.4625 27.6849 113.129 42.3515 128.862 59.0182C154.062 85.6849 133.662 100.752 93.2625 85.1515C74.0625 77.6849 49.1292 58.8849 49.1292 51.8182C49.1292 50.3515 50.5958 48.2182 52.4625 47.0182C61.2625 41.2849 101.929 52.7515 103.529 61.5515C104.196 65.1515 96.9958 64.4849 83.1292 59.6849C69.7958 55.1515 59.2625 53.4182 57.9292 55.5515C56.4625 57.9515 67.3958 66.2182 80.0625 72.3515C105.529 84.6182 131.796 87.8182 131.796 78.6182C131.796 75.0182 121.929 64.4849 112.729 58.2182C84.4625 39.0182 35.5292 25.5515 19.1292 32.3515C14.9958 34.0849 14.4625 34.8849 14.4625 39.2849C14.4625 43.6849 15.5292 45.2849 24.1958 53.6849C34.3292 63.5515 46.3292 71.2849 61.1292 77.5515C73.1292 82.7515 73.7958 83.0182 74.1958 86.0849C74.8625 90.7515 70.8625 90.6182 60.4625 85.8182C36.8625 75.1515 16.5958 58.3515 9.12916 43.2849C1.92916 29.0182 4.46249 21.6849 17.7958 18.3515C23.3958 16.8849 41.1292 18.2182 54.5958 21.2849ZM237.529 21.6849C239.662 23.8182 244.462 40.3515 246.729 53.4182L248.196 61.6849L252.062 57.1515C254.196 54.6182 257.796 49.6849 260.062 46.0849C263.396 41.0182 264.996 39.8182 268.062 39.8182C270.062 39.8182 271.796 40.2182 271.796 40.7515C271.796 42.3515 268.062 47.5515 259.529 58.0849C255.262 63.1515 251.796 67.8182 251.796 68.3515C251.796 68.7515 260.729 73.6849 271.662 79.1515C282.596 84.6182 292.062 89.8182 292.596 90.6182C293.129 91.5515 292.462 93.0182 291.129 93.9515C288.329 95.9515 285.529 95.0182 275.662 88.7515C271.662 86.3515 264.329 81.9515 259.396 79.1515L250.329 74.2182L250.596 80.3515C250.996 86.8849 249.262 89.9515 246.062 88.7515C244.729 88.2182 243.796 85.1515 243.129 79.9515C242.462 73.9515 241.529 71.4182 239.662 70.3515C236.862 68.8849 236.196 65.1515 238.596 65.1515C240.996 65.1515 238.996 53.8182 233.796 36.3515C231.262 27.9515 229.129 20.8849 229.129 20.4849C229.129 19.0182 235.796 19.9515 237.529 21.6849ZM161.129 51.4182C164.196 57.1515 168.862 64.7515 171.529 68.4849L176.462 75.1515L177.796 61.1515C178.462 53.4182 179.662 46.3515 180.196 45.4182C182.462 41.9515 185.929 43.9515 190.196 51.0182C192.596 55.0182 196.196 59.5515 198.196 61.1515L201.796 63.9515L202.862 60.8849C208.062 47.1515 218.596 41.6849 229.262 47.2849C232.596 49.0182 233.262 49.9515 232.862 53.5515C232.329 58.7515 228.996 59.8182 224.862 55.9515C217.529 49.0182 208.196 57.1515 212.329 66.8849C216.196 76.2182 225.796 79.4182 232.196 73.4182C235.796 70.0849 237.929 69.6849 238.862 72.3515C240.596 76.7515 231.396 83.8182 224.196 83.8182C222.062 83.8182 217.929 82.4849 215.129 81.0182C212.196 79.4182 207.529 77.0182 204.729 75.5515C201.796 74.0849 196.862 70.3515 193.662 67.1515L187.796 61.2849V70.4849C187.796 78.0849 187.262 80.3515 185.129 82.4849C183.662 83.9515 181.662 85.1515 180.596 85.1515C176.062 85.1515 166.996 76.4849 160.196 65.6849C158.862 63.5515 158.596 64.2182 158.596 69.9515C158.329 83.1515 150.729 82.8849 143.929 69.5515C137.796 57.6849 137.796 57.6849 134.996 59.9515C132.862 61.6849 132.729 61.4182 133.529 57.2849C134.062 54.8849 134.462 51.9515 134.462 50.8849C134.462 49.6849 135.529 49.1515 137.529 49.4182C139.529 49.6849 141.662 52.0849 144.462 57.1515L148.462 64.4849L149.129 54.4849C150.196 37.5515 153.262 36.7515 161.129 51.4182ZM284.329 45.0182C284.729 45.5515 283.529 46.7515 281.796 47.5515C279.929 48.4849 278.462 49.6849 278.462 50.3515C278.462 52.3515 296.196 67.1515 296.729 65.6849C299.396 57.5515 313.662 43.8182 319.262 43.8182C322.329 43.8182 326.329 50.6182 327.796 58.2182C328.729 62.3515 331.129 69.0182 333.396 73.0182C337.796 80.8849 337.529 83.8182 332.462 83.8182C329.529 83.8182 328.462 82.6182 325.529 76.0849C323.662 71.9515 321.929 68.3515 321.796 68.0849C321.529 67.8182 318.462 70.6182 314.729 74.3515C307.129 81.9515 299.262 84.6182 296.329 80.6182C294.862 78.4849 294.062 78.4849 290.062 79.9515C282.062 82.7515 270.729 78.7515 272.729 73.6849C273.396 71.9515 274.862 71.6849 280.596 72.4849C290.329 73.6849 290.196 71.1515 279.796 62.8849C271.396 56.0849 268.996 51.8182 271.929 48.3515C274.996 44.6182 282.862 42.4849 284.329 45.0182ZM427.796 58.4849C429.262 59.9515 430.462 62.2182 430.462 63.4182C430.462 66.4849 426.462 70.4849 423.396 70.4849C419.929 70.4849 415.796 66.7515 415.796 63.5515C415.796 60.6182 420.329 55.8182 423.129 55.8182C424.196 55.8182 426.329 57.0182 427.796 58.4849Z" fill="#EDEDED"/>
<path d="M381.129 57.5516C375.263 60.4849 375.929 70.4849 382.196 73.6849C384.196 74.6182 389.529 75.9516 394.063 76.4849C404.463 77.6849 405.796 75.8182 400.196 67.6849C393.929 58.3516 386.996 54.6182 381.129 57.5516Z" fill="#EDEDED"/>
<path d="M312.196 54.7514C307.129 60.2181 305.129 63.9514 305.129 68.3514C305.129 73.4181 307.529 72.6181 314.729 65.1514C319.529 60.2181 321.129 57.4181 321.129 54.4848C321.129 49.0181 317.529 49.1514 312.196 54.7514Z" fill="#EDEDED"/>
<path d="M419.129 59.8182C414.063 65.4182 421.663 72.3515 426.996 67.0182C429.929 64.2182 429.663 61.6849 426.196 59.2849C422.329 56.6182 422.063 56.6182 419.129 59.8182ZM426.063 63.8182C426.463 66.3515 426.196 66.7515 424.996 65.5515C423.796 64.3515 422.863 64.2182 421.529 65.2849C420.196 66.4849 419.796 66.0849 419.796 63.2849C419.796 60.3515 420.329 59.6849 422.729 60.0849C424.596 60.3515 425.663 61.6849 426.063 63.8182Z" fill="#EDEDED"/>
</svg>
