
<?xml version="1.0" standalone="no"?>
<!DOCTYPE svg PUBLIC "-//W3C//DTD SVG 20010904//EN"
 "http://www.w3.org/TR/2001/REC-SVG-20010904/DTD/svg10.dtd">
<svg version="1.0" xmlns="http://www.w3.org/2000/svg"
 width="500.000000pt" height="250.000000pt" viewBox="0 0 500.000000 250.000000"
 preserveAspectRatio="xMidYMid meet">

<g transform="translate(0.000000,250.000000) scale(0.100000,-0.100000)"
fill="#000000" stroke="none">
<path d="M2368 1678 l142 -186 -34 -57 c-62 -102 -67 -226 -16 -342 11 -25 20
-51 20 -57 0 -7 -23 -34 -50 -61 l-50 -49 -135 134 c-74 74 -135 138 -135 141
0 3 32 7 72 8 132 3 178 50 178 179 0 55 -5 76 -23 103 -43 65 -62 69 -344 69
l-253 0 0 -310 0 -310 45 0 45 0 0 265 0 265 194 0 c180 0 195 -1 220 -21 21
-17 26 -29 26 -65 0 -77 -15 -84 -182 -85 -79 -1 -158 0 -175 1 -18 1 -33 -2
-33 -7 0 -4 97 -105 215 -223 l215 -215 -36 -40 c-20 -22 -53 -58 -73 -79
l-36 -39 40 29 c22 16 58 43 81 61 23 18 45 33 51 33 5 0 22 -13 38 -30 27
-28 34 -30 99 -30 l70 0 -63 64 -63 63 60 47 60 46 56 -34 c108 -65 231 -73
342 -22 l58 27 105 -103 c119 -116 120 -118 181 -173 52 -47 57 -55 -104 157
l-127 167 30 41 c77 106 87 251 26 375 l-24 49 107 111 c158 162 210 221 180
199 -15 -10 -96 -72 -181 -137 l-154 -117 -57 34 c-108 65 -243 73 -346 21
-28 -14 -58 -25 -65 -23 -7 2 -82 69 -166 150 -85 80 -158 150 -163 155 -5 4
54 -76 132 -179z m516 -272 c148 113 143 110 166 89 11 -10 20 -23 20 -29 0
-6 -45 -59 -101 -118 -65 -70 -98 -112 -93 -120 4 -7 43 -60 87 -117 82 -107
86 -119 45 -145 -13 -8 -37 10 -121 87 -57 53 -110 97 -116 97 -6 0 -58 -36
-115 -80 -57 -44 -108 -80 -113 -80 -5 0 -19 10 -31 23 l-21 23 100 107 100
107 -23 32 c-12 18 -51 70 -85 115 -35 44 -63 85 -63 89 0 4 10 18 21 31 l22
22 111 -104 112 -104 98 75z"/>
<path d="M310 1250 l0 -310 45 0 44 0 3 133 3 132 218 3 217 3 0 -136 0 -135
50 0 50 0 0 310 0 310 -50 0 -50 0 0 -130 0 -130 -220 0 -220 0 0 130 0 130
-45 0 -45 0 0 -310z"/>
<path d="M1022 1518 l3 -43 313 -3 312 -2 0 45 0 45 -316 0 -315 0 3 -42z"/>
<path d="M3220 1515 l0 -45 309 0 c171 0 312 3 314 8 2 4 2 24 0 45 l-5 37
-309 0 -309 0 0 -45z"/>
<path d="M3930 1515 c0 -43 31 -125 48 -125 14 0 42 86 42 128 l0 42 -45 0
-45 0 0 -45z"/>
<path d="M4164 1540 c-53 -26 -77 -78 -77 -159 1 -68 23 -122 61 -148 23 -15
56 -19 225 -23 l199 -5 24 -28 c30 -35 31 -85 3 -120 l-20 -27 -247 -2 -247
-3 -3 -42 -3 -43 258 0 c284 0 304 4 347 63 31 42 30 183 0 224 -46 61 -71 68
-282 73 -177 5 -195 7 -208 24 -21 30 -18 102 6 126 19 19 33 20 265 20 l245
0 0 45 0 45 -252 0 c-234 0 -256 -2 -294 -20z"/>
<path d="M1027 1294 c-12 -13 -8 -82 6 -86 6 -2 148 -2 315 0 l302 4 0 43 0
44 -308 1 c-170 0 -311 -3 -315 -6z"/>
<path d="M3222 1253 c2 -27 6 -47 11 -45 4 1 142 2 306 2 l299 0 4 38 c3 21 0
40 -6 44 -6 4 -147 8 -314 8 l-303 0 3 -47z"/>
<path d="M1020 985 l0 -45 315 0 315 0 0 45 0 45 -315 0 -315 0 0 -45z"/>
<path d="M3220 985 l0 -45 312 2 311 3 0 40 0 40 -311 3 -312 2 0 -45z"/>
</g>
</svg>
