<svg width="692" height="660" viewBox="0 0 692 660" fill="none" xmlns="http://www.w3.org/2000/svg">
<path fill-rule="evenodd" clip-rule="evenodd" d="M325.781 81.7602C362.683 94.1943 402.735 87.093 439.872 98.805C480.643 111.663 520.029 127.759 553.987 153.729C593.03 183.589 630.509 217.113 652.223 261.209C675.994 309.482 695.691 364.955 683.845 417.443C671.998 469.939 624.574 505.329 588.183 544.976C553.644 582.604 522.5 626.891 474.811 645.18C427.839 663.194 375.276 654.614 325.781 645.609C281.028 637.467 237.339 622.364 200.763 595.321C166.825 570.23 151.254 528.865 124.136 496.524C96.3184 463.348 57.6464 440.021 38.1376 401.37C16.5002 358.502 -2.5304 309.991 6.14617 262.763C14.8538 215.365 59.7002 184.788 85.4143 144.031C114.181 98.4351 115.303 20.5469 167.492 7.02643C224.693 -7.7923 269.786 62.8924 325.781 81.7602Z" stroke="#D73F33" stroke-width="8"/>
</svg>
