<svg width="673" height="617" viewBox="0 0 673 617" fill="none" xmlns="http://www.w3.org/2000/svg">
<path fill-rule="evenodd" clip-rule="evenodd" d="M357.586 8.54111C409.994 3.79463 472.236 -4.77888 512.038 29.6429C554.137 66.0505 534.445 138.736 563.221 186.378C587.236 226.138 647.43 236.972 663.572 280.527C679.653 323.917 652.707 370.698 648.615 416.791C643.921 469.658 675.704 536.736 637.548 573.628C597.197 612.642 527.633 581.281 471.871 587.681C433.068 592.135 396.542 602.924 357.586 605.759C316.313 608.764 273.597 619.843 234.998 604.924C195.819 589.78 167.135 555.949 141.884 522.383C117.009 489.317 109.144 447.981 89.5252 411.549C63.2404 362.74 -4.14357 324.621 6.03889 270.128C16.0394 216.608 96.075 211.084 134.239 172.253C167.787 138.118 177.443 84.7452 216.044 56.4508C256.728 26.6299 307.349 13.091 357.586 8.54111Z" stroke="#F1EEEB" stroke-width="8"/>
</svg>
