<?xml version="1.0" standalone="no"?>
<!DOCTYPE svg PUBLIC "-//W3C//DTD SVG 20010904//EN"
 "http://www.w3.org/TR/2001/REC-SVG-20010904/DTD/svg10.dtd">
<svg version="1.0" xmlns="http://www.w3.org/2000/svg"
 width="512.000000pt" height="512.000000pt" viewBox="0 0 512.000000 512.000000"
 preserveAspectRatio="xMidYMid meet">

<g transform="translate(0.000000,512.000000) scale(0.100000,-0.100000)"
fill="#000000" stroke="none">
<path d="M330 4784 c24 -30 489 -571 765 -890 71 -83 145 -168 164 -190 18
-21 92 -108 165 -192 72 -85 132 -157 134 -162 2 -4 -15 -32 -38 -62 -86 -112
-176 -330 -211 -509 -20 -100 -17 -367 5 -469 36 -168 97 -312 193 -457 35
-54 51 -87 46 -96 -4 -7 -132 -157 -283 -332 -326 -378 -793 -920 -823 -955
-12 -14 -49 -57 -82 -95 -32 -39 -50 -63 -40 -54 26 21 813 699 945 814 26 22
73 63 105 90 33 28 127 108 210 179 82 71 158 136 167 144 15 12 26 8 101 -42
205 -136 412 -203 662 -213 198 -8 391 30 569 111 76 35 226 126 245 150 10
11 -65 81 -374 347 -213 184 -390 335 -393 336 -4 2 -19 -7 -33 -20 -14 -12
-68 -58 -119 -102 -51 -44 -214 -185 -362 -312 -149 -128 -275 -233 -281 -233
-14 0 -197 183 -197 197 0 6 145 179 322 385 178 205 329 381 337 391 12 15 0
32 -106 154 -581 673 -556 643 -542 670 7 14 51 61 97 104 46 43 81 83 77 88
-5 9 -428 376 -755 656 -58 49 -107 92 -110 95 -3 3 -68 59 -145 125 -77 66
-207 178 -290 250 -82 71 -139 116 -125 99z"/>
<path d="M4520 4564 c-157 -135 -341 -294 -409 -352 -154 -133 -234 -202 -638
-551 l-121 -105 96 -96 c54 -53 101 -96 107 -95 8 0 62 58 179 195 52 61 463
539 581 676 71 83 180 209 240 280 61 70 143 165 183 211 41 46 72 83 70 83
-2 0 -131 -111 -288 -246z"/>
<path d="M2470 3825 c-8 -2 -55 -9 -105 -15 -113 -15 -255 -60 -368 -116 -89
-44 -200 -115 -213 -136 -4 -6 5 -22 23 -37 16 -14 58 -51 93 -81 36 -30 85
-73 111 -95 25 -22 72 -62 105 -90 32 -27 143 -123 247 -212 103 -90 192 -163
196 -163 4 0 32 22 62 48 74 66 533 461 635 547 46 39 83 73 84 78 0 10 -151
107 -228 146 -85 43 -227 89 -325 107 -80 14 -287 27 -317 19z"/>
<path d="M3475 3258 c-39 -45 -188 -219 -332 -386 -145 -167 -263 -308 -263
-313 0 -4 111 -138 247 -296 369 -430 416 -483 425 -483 16 0 79 98 138 215
103 205 136 366 128 620 -7 200 -46 352 -135 530 -29 57 -122 195 -132 195 -3
0 -38 -37 -76 -82z"/>
<path d="M3448 1659 l-97 -98 57 -49 c240 -205 1189 -1025 1280 -1104 61 -55
112 -97 112 -93 0 3 -58 72 -128 153 -71 81 -202 233 -293 338 -90 105 -312
362 -493 572 -181 210 -331 381 -335 381 -3 -1 -50 -46 -103 -100z"/>
</g>
</svg>
