   
<svg width="auto" height="44" viewBox="-5 -10 599 117" fill="none" xmlns="http://www.w3.org/2000/svg">
<path d="M404.958 72V56.64H383.958C379.158 56.64 375.678 52.32 375.678 47.52C375.678 43.32 377.478 38.64 381.678 38.64C384.798 38.64 386.838 41.64 386.838 44.76C386.838 49.32 383.958 52.8 381.318 54.96H400.998C403.158 51.84 405.798 47.52 405.798 42.24C405.798 30.36 394.278 22.68 382.398 22.68C368.238 22.68 356.838 34.2 356.838 48.36C356.838 64.32 367.878 73.08 389.358 73.08C395.478 73.08 400.998 72.84 404.958 72ZM431.501 38.04L430.061 24.36H413.261V72H431.981V44.4C431.981 41.4 434.501 38.88 437.501 38.88C440.501 38.88 443.021 41.4 443.021 44.4V72H461.741V39C461.741 30.12 454.301 23.04 443.381 23.04C439.781 23.04 435.581 23.76 432.821 24.72L431.501 38.04ZM489.626 38.04L488.186 24.36H471.386V72H490.106V44.4C490.106 41.4 492.626 38.88 495.626 38.88C498.626 38.88 501.146 41.4 501.146 44.4V72H519.866V39C519.866 30.12 512.426 23.04 501.506 23.04C497.906 23.04 493.706 23.76 490.946 24.72L489.626 38.04ZM528.551 12.48C528.551 18.12 533.231 22.8 538.871 22.8C544.511 22.8 549.191 18.12 549.191 12.48C549.191 6.83999 544.511 2.16 538.871 2.16C533.231 2.16 528.551 6.83999 528.551 12.48ZM548.231 24.48H529.511V72H548.231V24.48ZM584.51 39.24V24.96C580.67 23.4 578.15 22.92 573.95 22.92C564.59 22.92 555.95 29.52 555.95 38.88C555.95 48.48 567.47 52.32 567.47 55.32C567.47 57.24 565.79 58.56 563.87 58.56C560.75 58.56 558.71 57.96 556.07 57V72C558.83 72.72 561.95 73.32 565.79 73.32C575.75 73.32 585.35 66.96 585.35 57C585.35 46.56 574.19 43.56 574.19 40.2C574.19 38.4 576.11 37.44 577.91 37.44C580.55 37.44 581.99 38.28 584.51 39.24Z" fill="#1399EC"/>
<path d="M404.958 72L406.203 77.8694L410.958 76.8608V72H404.958ZM404.958 56.64H410.958V50.64H404.958V56.64ZM381.318 54.96L377.518 50.3163L364.509 60.96H381.318V54.96ZM400.998 54.96V60.96H404.141L405.931 58.3753L400.998 54.96ZM410.958 72V56.64H398.958V72H410.958ZM404.958 50.64H383.958V62.64H404.958V50.64ZM383.958 50.64C383.468 50.64 382.988 50.4493 382.533 49.929C382.041 49.3663 381.678 48.4984 381.678 47.52H369.678C369.678 54.8561 375.116 62.64 383.958 62.64V50.64ZM381.678 47.52C381.678 46.8855 381.747 46.2542 381.875 45.6927C382.005 45.1218 382.171 44.7266 382.303 44.4967C382.434 44.2692 382.463 44.3186 382.288 44.4349C382.063 44.584 381.808 44.64 381.678 44.64V32.64C376.889 32.64 373.647 35.4793 371.902 38.5133C370.26 41.3664 369.678 44.6988 369.678 47.52H381.678ZM381.678 44.64C381.467 44.64 381.227 44.5829 381.016 44.4725C380.822 44.3707 380.734 44.2673 380.718 44.2479C380.705 44.2316 380.74 44.2726 380.778 44.3849C380.815 44.4952 380.838 44.6271 380.838 44.76H392.838C392.838 39.7257 389.356 32.64 381.678 32.64V44.64ZM380.838 44.76C380.838 46.674 379.589 48.6217 377.518 50.3163L385.117 59.6037C388.326 56.9783 392.838 51.966 392.838 44.76H380.838ZM381.318 60.96H400.998V48.96H381.318V60.96ZM405.931 58.3753C408.176 55.1314 411.798 49.4924 411.798 42.24H399.798C399.798 45.5476 398.139 48.5485 396.064 51.5447L405.931 58.3753ZM411.798 42.24C411.798 25.7444 396.119 16.68 382.398 16.68V28.68C392.436 28.68 399.798 34.9756 399.798 42.24H411.798ZM382.398 16.68C364.887 16.68 350.838 30.923 350.838 48.36H362.838C362.838 37.477 371.588 28.68 382.398 28.68V16.68ZM350.838 48.36C350.838 57.8584 354.21 65.9464 361.386 71.4622C368.298 76.7743 377.942 79.08 389.358 79.08V67.08C379.293 67.08 372.677 65.0057 368.699 61.9478C364.985 59.0936 362.838 54.8216 362.838 48.36H350.838ZM389.358 79.08C395.49 79.08 401.569 78.8524 406.203 77.8694L403.712 66.1306C400.426 66.8276 395.465 67.08 389.358 67.08V79.08ZM431.501 38.04L425.534 38.6681L437.472 38.6317L431.501 38.04ZM430.061 24.36L436.028 23.7319L435.463 18.36H430.061V24.36ZM413.261 24.36V18.36H407.261V24.36H413.261ZM413.261 72H407.261V78H413.261V72ZM431.981 72V78H437.981V72H431.981ZM443.021 72H437.021V78H443.021V72ZM461.741 72V78H467.741V72H461.741ZM432.821 24.72L430.85 19.053L427.228 20.3127L426.85 24.1283L432.821 24.72ZM437.468 37.4119L436.028 23.7319L424.094 24.9881L425.534 38.6681L437.468 37.4119ZM430.061 18.36H413.261V30.36H430.061V18.36ZM407.261 24.36V72H419.261V24.36H407.261ZM413.261 78H431.981V66H413.261V78ZM437.981 72V44.4H425.981V72H437.981ZM437.981 44.4C437.981 44.6068 437.894 44.7218 437.859 44.7576C437.823 44.7934 437.708 44.88 437.501 44.88V32.88C431.187 32.88 425.981 38.0863 425.981 44.4H437.981ZM437.501 44.88C437.294 44.88 437.179 44.7934 437.143 44.7576C437.108 44.7218 437.021 44.6068 437.021 44.4H449.021C449.021 38.0863 443.815 32.88 437.501 32.88V44.88ZM437.021 44.4V72H449.021V44.4H437.021ZM443.021 78H461.741V66H443.021V78ZM467.741 72V39H455.741V72H467.741ZM467.741 39C467.741 26.186 456.958 17.04 443.381 17.04V29.04C451.644 29.04 455.741 34.054 455.741 39H467.741ZM443.381 17.04C439.161 17.04 434.29 17.8564 430.85 19.053L434.792 30.387C436.872 29.6636 440.401 29.04 443.381 29.04V17.04ZM426.85 24.1283L425.53 37.4483L437.472 38.6317L438.792 25.3117L426.85 24.1283ZM489.626 38.04L483.659 38.6681L495.597 38.6317L489.626 38.04ZM488.186 24.36L494.153 23.7319L493.588 18.36H488.186V24.36ZM471.386 24.36V18.36H465.386V24.36H471.386ZM471.386 72H465.386V78H471.386V72ZM490.106 72V78H496.106V72H490.106ZM501.146 72H495.146V78H501.146V72ZM519.866 72V78H525.866V72H519.866ZM490.946 24.72L488.975 19.053L485.353 20.3127L484.975 24.1283L490.946 24.72ZM495.593 37.4119L494.153 23.7319L482.219 24.9881L483.659 38.6681L495.593 37.4119ZM488.186 18.36H471.386V30.36H488.186V18.36ZM465.386 24.36V72H477.386V24.36H465.386ZM471.386 78H490.106V66H471.386V78ZM496.106 72V44.4H484.106V72H496.106ZM496.106 44.4C496.106 44.6068 496.019 44.7218 495.984 44.7576C495.948 44.7934 495.833 44.88 495.626 44.88V32.88C489.312 32.88 484.106 38.0863 484.106 44.4H496.106ZM495.626 44.88C495.419 44.88 495.304 44.7934 495.268 44.7576C495.233 44.7218 495.146 44.6068 495.146 44.4H507.146C507.146 38.0863 501.94 32.88 495.626 32.88V44.88ZM495.146 44.4V72H507.146V44.4H495.146ZM501.146 78H519.866V66H501.146V78ZM525.866 72V39H513.866V72H525.866ZM525.866 39C525.866 26.186 515.083 17.04 501.506 17.04V29.04C509.769 29.04 513.866 34.054 513.866 39H525.866ZM501.506 17.04C497.286 17.04 492.415 17.8564 488.975 19.053L492.917 30.387C494.997 29.6636 498.526 29.04 501.506 29.04V17.04ZM484.975 24.1283L483.655 37.4483L495.597 38.6317L496.917 25.3117L484.975 24.1283ZM548.231 24.48H554.231V18.48H548.231V24.48ZM529.511 24.48V18.48H523.511V24.48H529.511ZM529.511 72H523.511V78H529.511V72ZM548.231 72V78H554.231V72H548.231ZM522.551 12.48C522.551 21.4337 529.917 28.8 538.871 28.8V16.8C536.545 16.8 534.551 14.8063 534.551 12.48H522.551ZM538.871 28.8C547.825 28.8 555.191 21.4337 555.191 12.48H543.191C543.191 14.8063 541.197 16.8 538.871 16.8V28.8ZM555.191 12.48C555.191 3.52628 547.825 -3.84 538.871 -3.84V8.16C541.197 8.16 543.191 10.1537 543.191 12.48H555.191ZM538.871 -3.84C529.917 -3.84 522.551 3.52628 522.551 12.48H534.551C534.551 10.1537 536.545 8.16 538.871 8.16V-3.84ZM548.231 18.48H529.511V30.48H548.231V18.48ZM523.511 24.48V72H535.511V24.48H523.511ZM529.511 78H548.231V66H529.511V78ZM554.231 72V24.48H542.231V72H554.231ZM584.51 39.24L582.374 44.8469L590.51 47.9463V39.24H584.51ZM584.51 24.96H590.51V20.9213L586.769 19.4012L584.51 24.96ZM556.07 57L558.121 51.3612L550.07 48.4338V57H556.07ZM556.07 72H550.07V76.6356L554.556 77.8057L556.07 72ZM590.51 39.24V24.96H578.51V39.24H590.51ZM586.769 19.4012C582.192 17.5419 578.903 16.92 573.95 16.92V28.92C577.398 28.92 579.149 29.2581 582.252 30.5188L586.769 19.4012ZM573.95 16.92C562.25 16.92 549.95 25.31 549.95 38.88H561.95C561.95 33.73 566.93 28.92 573.95 28.92V16.92ZM549.95 38.88C549.95 46.3575 554.521 51.2403 557.746 54.0788C558.579 54.8118 559.392 55.4682 560.076 56.0156C560.804 56.5985 561.318 57.0049 561.751 57.3783C562.206 57.7711 562.281 57.8838 562.214 57.7967C562.19 57.7658 561.47 56.8657 561.47 55.32H573.47C573.47 53.0242 572.391 51.3479 571.737 50.4954C571.04 49.5865 570.215 48.832 569.59 48.2929C568.943 47.7345 568.196 47.1444 567.574 46.6468C566.908 46.1136 566.282 45.6057 565.675 45.0712C563.139 42.8397 561.95 41.0025 561.95 38.88H549.95ZM561.47 55.32C561.47 54.4048 561.912 53.5999 562.469 53.1191C562.968 52.6878 563.485 52.56 563.87 52.56V64.56C568.248 64.56 573.47 61.3492 573.47 55.32H561.47ZM563.87 52.56C561.748 52.56 560.459 52.2117 558.121 51.3612L554.02 62.6388C556.961 63.7083 559.752 64.56 563.87 64.56V52.56ZM550.07 57V72H562.07V57H550.07ZM554.556 77.8057C557.634 78.6088 561.285 79.32 565.79 79.32V67.32C562.616 67.32 560.026 66.8312 557.585 66.1943L554.556 77.8057ZM565.79 79.32C577.573 79.32 591.35 71.5896 591.35 57H579.35C579.35 62.3304 573.927 67.32 565.79 67.32V79.32ZM591.35 57C591.35 49.2623 587.07 44.3997 583.752 41.4566C582.931 40.7285 582.131 40.0832 581.471 39.5551C580.762 38.9882 580.285 38.6092 579.889 38.2619C579.475 37.8994 579.444 37.821 579.54 37.9534C579.643 38.0973 580.19 38.9 580.19 40.2H568.19C568.19 42.34 569.086 43.9715 569.8 44.9633C570.506 45.9437 571.347 46.7325 571.98 47.2868C572.63 47.8564 573.373 48.444 573.972 48.9238C574.62 49.4424 575.214 49.924 575.789 50.4334C578.051 52.4403 579.35 54.2977 579.35 57H591.35ZM580.19 40.2C580.19 40.8672 579.999 41.5432 579.648 42.121C579.319 42.6648 578.933 42.9859 578.679 43.1536C578.235 43.4467 577.965 43.44 577.91 43.44V31.44C576.056 31.44 573.926 31.9133 572.072 33.1364C570.091 34.4426 568.19 36.8392 568.19 40.2H580.19ZM577.91 43.44C579.127 43.44 579.134 43.6125 582.374 44.8469L586.646 33.6331C584.847 32.9475 581.973 31.44 577.91 31.44V43.44Z" fill="#1399EC" fill-opacity="0.21"/>
<path d="M364.6 20.64L361.96 4.56H321.16L318.52 20.64H331.96V72H351.64V20.64H364.6Z" fill="#1399EC"/>
<path d="M364.6 20.64V26.64H371.665L370.521 19.6679L364.6 20.64ZM361.96 4.56L367.881 3.58793L367.055 -1.44H361.96V4.56ZM321.16 4.56V-1.44H316.065L315.239 3.58793L321.16 4.56ZM318.52 20.64L312.599 19.6679L311.455 26.64H318.52V20.64ZM331.96 20.64H337.96V14.64H331.96V20.64ZM331.96 72H325.96V78H331.96V72ZM351.64 72V78H357.64V72H351.64ZM351.64 20.64V14.64H345.64V20.64H351.64ZM370.521 19.6679L367.881 3.58793L356.039 5.53206L358.679 21.6121L370.521 19.6679ZM361.96 -1.44H321.16V10.56H361.96V-1.44ZM315.239 3.58793L312.599 19.6679L324.441 21.6121L327.081 5.53206L315.239 3.58793ZM318.52 26.64H331.96V14.64H318.52V26.64ZM325.96 20.64V72H337.96V20.64H325.96ZM331.96 78H351.64V66H331.96V78ZM357.64 72V20.64H345.64V72H357.64ZM351.64 26.64H364.6V14.64H351.64V26.64Z" fill="#1399EC" fill-opacity="0.21"/>
<path d="M49.2 42.16H65.52C70.32 42.16 73.44 45.88 73.44 50.32C73.44 54.52 70.32 57.64 65.52 57.64H49.2V42.16ZM65.76 70C78.72 70 87.36 62.44 87.36 51.28C87.36 43.96 82.2 38.08 76.8 35.8C81.84 33.4 84.96 28 84.96 21.64C84.96 6.03999 64.2 0.399995 47.4 0.399995C29.4 0.399995 8.88 6.28 8.88 25.6C8.88 38.32 19.2 46.36 30.96 46.36C32.28 46.36 33.12 46.12 34.44 45.88V32.44C33.12 32.8 32.4 33.28 31.08 33.28C26.64 33.28 23.16 30.16 23.16 25.24C23.16 14.56 37.32 13.36 48 13.36C64.56 13.36 71.4 17.8 71.4 23.2C71.4 27.28 67.2 29.8 63.12 29.8H49.2V15.52H36.12V56.92H29.28C16.32 56.92 3.96 62.92 3.96 78.04C3.96 88.6 13.32 96.52 23.88 96.52C37.68 96.52 46.08 89.68 46.08 78.52C46.08 75.64 45.48 73.6 44.52 71.44H29.52C30.84 72.88 32.4 74.44 32.4 76.48C32.4 81.28 29.16 83.92 25.08 83.92C21.12 83.92 17.76 80.68 17.76 76.72C17.76 72.4 21.84 70 26.4 70H65.76ZM134.163 70V58.36H122.643C113.163 58.36 105.363 52.48 105.363 43.6C105.363 38.2 108.723 32.68 114.123 32.68C118.203 32.68 121.563 36.04 121.563 40.12C121.563 46.72 117.483 49.6 111.363 53.68H130.443C133.923 49.12 135.603 44.56 135.603 38.2C135.603 28.96 125.523 21.16 114.483 21.16C101.163 21.16 91.5628 31 91.5628 43.48C91.5628 58.24 103.803 70 118.683 70H134.163ZM189.058 22.36H168.898C151.378 22.36 141.538 32.44 141.538 46.72C141.538 59.8 151.738 70.72 164.818 70.72C168.658 70.72 171.898 69.76 174.298 68.44L176.338 58.6V70H189.058V22.36ZM176.338 53.56C173.818 57.04 170.338 58.48 165.778 58.48C159.298 58.48 154.978 53.08 154.978 46.84C154.978 39.4 160.018 34 168.898 34H176.338V53.56ZM251.043 44.08C249.723 31 238.443 21.16 225.003 21.16C210.723 21.16 198.843 32.32 198.843 46.6C198.843 60.88 210.723 72.04 225.003 72.04C238.803 72.04 250.443 61.6 251.163 47.92H237.843C237.243 54.76 231.963 60.52 225.003 60.52C217.563 60.52 212.163 54.04 212.163 46.6C212.163 39.16 217.563 32.68 225.003 32.68C231.603 32.68 236.523 37.72 237.603 44.08H251.043ZM304.563 40.72C304.563 30.76 298.443 21.16 284.043 21.16C280.203 21.16 275.883 21.88 273.483 23.2L271.443 33.76V2.56H258.723V70H271.443V43.12C271.443 37.84 277.083 33.16 282.363 33.16C287.643 33.16 291.843 37.36 291.843 42.64V70H304.563V40.72Z" fill="#F17F31"/>
<path d="M49.2 42.16V36.16H43.2V42.16H49.2ZM49.2 57.64H43.2V63.64H49.2V57.64ZM76.8 35.8L74.2204 30.3828L62.1537 36.1289L74.4662 41.3275L76.8 35.8ZM34.44 45.88L35.5133 51.7832L40.44 50.8875V45.88H34.44ZM34.44 32.44H40.44V24.5845L32.8613 26.6514L34.44 32.44ZM49.2 29.8H43.2V35.8H49.2V29.8ZM49.2 15.52H55.2V9.52H49.2V15.52ZM36.12 15.52V9.52H30.12V15.52H36.12ZM36.12 56.92V62.92H42.12V56.92H36.12ZM44.52 71.44L50.0029 69.0032L48.4192 65.44H44.52V71.44ZM29.52 71.44V65.44H15.8806L25.0971 75.4943L29.52 71.44ZM49.2 48.16H65.52V36.16H49.2V48.16ZM65.52 48.16C66.2794 48.16 66.6583 48.4156 66.8848 48.6594C67.1569 48.9522 67.44 49.4991 67.44 50.32H79.44C79.44 42.9882 74.0405 36.16 65.52 36.16V48.16ZM67.44 50.32C67.44 50.8794 67.2622 51.0966 67.1575 51.1955C67.0384 51.3081 66.6015 51.64 65.52 51.64V63.64C69.2385 63.64 72.7616 62.4119 75.4025 59.9145C78.0578 57.4034 79.44 53.9606 79.44 50.32H67.44ZM65.52 51.64H49.2V63.64H65.52V51.64ZM55.2 57.64V42.16H43.2V57.64H55.2ZM65.76 76C73.3823 76 80.2746 73.7696 85.3557 69.3538C90.5091 64.8753 93.36 58.5133 93.36 51.28H81.36C81.36 55.2067 79.8909 58.2047 77.4843 60.2962C75.0054 62.4504 71.0977 64 65.76 64V76ZM93.36 51.28C93.36 41.097 86.3084 33.3018 79.1338 30.2725L74.4662 41.3275C78.0916 42.8582 81.36 46.823 81.36 51.28H93.36ZM79.3796 41.2172C86.8405 37.6643 90.96 29.923 90.96 21.64H78.96C78.96 26.077 76.8395 29.1357 74.2204 30.3828L79.3796 41.2172ZM90.96 21.64C90.96 10.5288 83.358 3.57708 74.9915 -0.279073C66.6526 -4.12254 56.3238 -5.60001 47.4 -5.60001V6.39999C55.2762 6.39999 63.7274 7.74253 69.9685 10.6191C76.182 13.4829 78.96 17.1512 78.96 21.64H90.96ZM47.4 -5.60001C37.9102 -5.60001 27.1821 -4.0747 18.5951 0.445722C9.67821 5.13976 2.88 13.2612 2.88 25.6H14.88C14.88 18.6188 18.3418 14.1402 24.1849 11.0643C30.3579 7.81469 38.8898 6.39999 47.4 6.39999V-5.60001ZM2.88 25.6C2.88 42.2786 16.5702 52.36 30.96 52.36V40.36C21.8298 40.36 14.88 34.3615 14.88 25.6H2.88ZM30.96 52.36C32.9917 52.36 34.6809 51.9346 35.5133 51.7832L33.3667 39.9768C32.9818 40.0468 32.6294 40.1173 32.3632 40.1698C32.078 40.2261 31.8864 40.2628 31.7136 40.2916C31.4221 40.3402 31.2193 40.36 30.96 40.36V52.36ZM40.44 45.88V32.44H28.44V45.88H40.44ZM32.8613 26.6514C32.3377 26.7942 31.8966 26.943 31.5651 27.0588C31.1661 27.1981 31.0818 27.2318 30.9131 27.2863C30.8103 27.3196 30.8206 27.3114 30.8852 27.2994C30.9605 27.2855 31.0332 27.28 31.08 27.28V39.28C32.5631 39.28 33.7208 38.9903 34.6069 38.7037C34.9482 38.5932 35.3739 38.4394 35.5224 38.3875C35.7384 38.312 35.8823 38.2658 36.0187 38.2286L32.8613 26.6514ZM31.08 27.28C30.2813 27.28 29.8545 27.0154 29.6523 26.8175C29.4768 26.6457 29.16 26.2269 29.16 25.24H17.16C17.16 29.1731 18.5832 32.7743 21.2577 35.3925C23.9055 37.9846 27.4387 39.28 31.08 39.28V27.28ZM29.16 25.24C29.16 24.0438 29.4999 23.4322 29.9425 22.954C30.5144 22.3362 31.5979 21.6158 33.4829 20.9836C37.3507 19.6864 42.6955 19.36 48 19.36V7.36C42.6245 7.36 35.5493 7.63363 29.6671 9.60641C26.6771 10.6092 23.5531 12.1913 21.1362 14.8023C18.5901 17.5528 17.16 21.0962 17.16 25.24H29.16ZM48 19.36C55.8858 19.36 60.7188 20.4389 63.348 21.6805C64.6202 22.2813 65.1364 22.807 65.3083 23.0316C65.3503 23.0864 65.3734 23.125 65.385 23.1465C65.391 23.1575 65.3946 23.1652 65.3966 23.1699C65.3987 23.1745 65.3995 23.1768 65.3996 23.1772C65.3997 23.1776 65.3995 23.177 65.3992 23.1757C65.399 23.1751 65.3989 23.1746 65.3988 23.1741C65.3987 23.1737 65.3987 23.1734 65.3987 23.1734C65.3987 23.1734 65.3988 23.1738 65.3989 23.1747C65.399 23.1755 65.3991 23.1769 65.3993 23.1789C65.3996 23.1828 65.4 23.1897 65.4 23.2H77.4C77.4 17.3996 73.5405 13.223 68.472 10.8295C63.5412 8.50106 56.6742 7.36 48 7.36V19.36ZM65.4 23.2C65.4 23.1518 65.4218 23.0618 65.4557 23.0017C65.4758 22.9662 65.441 23.046 65.2499 23.1857C64.8162 23.5026 64.0152 23.8 63.12 23.8V35.8C66.3048 35.8 69.6438 34.8374 72.3301 32.8743C75.1014 30.8492 77.4 27.5347 77.4 23.2H65.4ZM63.12 23.8H49.2V35.8H63.12V23.8ZM55.2 29.8V15.52H43.2V29.8H55.2ZM49.2 9.52H36.12V21.52H49.2V9.52ZM30.12 15.52V56.92H42.12V15.52H30.12ZM36.12 50.92H29.28V62.92H36.12V50.92ZM29.28 50.92C21.9962 50.92 14.3014 52.5884 8.25499 56.9402C1.94352 61.4829 -2.04 68.5934 -2.04 78.04H9.96C9.96 72.3666 12.1565 68.9171 15.265 66.6798C18.6386 64.2516 23.6038 62.92 29.28 62.92V50.92ZM-2.04 78.04C-2.04 92.483 10.6058 102.52 23.88 102.52V90.52C16.0342 90.52 9.96 84.717 9.96 78.04H-2.04ZM23.88 102.52C31.6988 102.52 38.7337 100.587 43.9365 96.3634C49.2896 92.0179 52.08 85.7408 52.08 78.52H40.08C40.08 82.4592 38.6704 85.1821 36.3735 87.0466C33.9263 89.0332 29.8612 90.52 23.88 90.52V102.52ZM52.08 78.52C52.08 74.6194 51.2217 71.7455 50.0029 69.0032L39.0371 73.8768C39.7383 75.4545 40.08 76.6606 40.08 78.52H52.08ZM44.52 65.44H29.52V77.44H44.52V65.44ZM25.0971 75.4943C25.4912 75.9243 25.738 76.1856 26.0045 76.4913C26.2495 76.7722 26.3917 76.9578 26.4767 77.0841C26.6454 77.3349 26.4 77.0714 26.4 76.48H38.4C38.4 73.8486 37.3746 71.7851 36.4333 70.3859C35.5618 69.0905 34.444 67.9323 33.9429 67.3857L25.0971 75.4943ZM26.4 76.48C26.4 77.0018 26.3131 77.3036 26.256 77.447C26.2016 77.5835 26.1516 77.6365 26.1271 77.6599C26.0968 77.6888 25.8348 77.92 25.08 77.92V89.92C28.4052 89.92 31.8032 88.8312 34.4129 86.3401C37.073 83.8009 38.4 80.2938 38.4 76.48H26.4ZM25.08 77.92C24.7535 77.92 24.406 77.7851 24.1292 77.5144C23.8583 77.2496 23.76 76.9624 23.76 76.72H11.76C11.76 84.1215 17.9356 89.92 25.08 89.92V77.92ZM23.76 76.72C23.76 76.6171 23.7758 76.6478 23.737 76.719C23.7077 76.7728 23.7138 76.7254 23.8661 76.6162C24.2248 76.359 25.0853 76 26.4 76V64C23.1547 64 19.6952 64.841 16.8739 66.8638C13.8966 68.9985 11.76 72.4097 11.76 76.72H23.76ZM26.4 76H65.76V64H26.4V76ZM134.163 70V76H140.163V70H134.163ZM134.163 58.36H140.163V52.36H134.163V58.36ZM111.363 53.68L108.035 48.6877L91.5462 59.68H111.363V53.68ZM130.443 53.68V59.68H133.412L135.213 57.32L130.443 53.68ZM140.163 70V58.36H128.163V70H140.163ZM134.163 52.36H122.643V64.36H134.163V52.36ZM122.643 52.36C115.33 52.36 111.363 48.1257 111.363 43.6H99.3628C99.3628 56.8343 110.996 64.36 122.643 64.36V52.36ZM111.363 43.6C111.363 42.0565 111.863 40.6029 112.547 39.6754C113.169 38.832 113.697 38.68 114.123 38.68V26.68C109.149 26.68 105.297 29.2879 102.888 32.5546C100.542 35.7371 99.3628 39.7435 99.3628 43.6H111.363ZM114.123 38.68C114.889 38.68 115.563 39.3537 115.563 40.12H127.563C127.563 32.7263 121.517 26.68 114.123 26.68V38.68ZM115.563 40.12C115.563 41.9352 115.091 42.9172 114.228 43.9104C113.071 45.2429 111.249 46.5445 108.035 48.6877L114.691 58.6723C117.596 56.7355 120.875 54.5571 123.288 51.7796C125.995 48.6628 127.563 44.9048 127.563 40.12H115.563ZM111.363 59.68H130.443V47.68H111.363V59.68ZM135.213 57.32C139.475 51.7345 141.603 45.9005 141.603 38.2H129.603C129.603 43.2195 128.37 46.5055 125.673 50.04L135.213 57.32ZM141.603 38.2C141.603 31.3007 137.855 25.4498 132.92 21.521C127.965 17.5758 121.369 15.16 114.483 15.16V27.16C118.637 27.16 122.601 28.6442 125.446 30.909C128.311 33.1902 129.603 35.8593 129.603 38.2H141.603ZM114.483 15.16C97.9123 15.16 85.5628 27.6235 85.5628 43.48H97.5628C97.5628 34.3765 104.413 27.16 114.483 27.16V15.16ZM85.5628 43.48C85.5628 61.71 100.648 76 118.683 76V64C106.958 64 97.5628 54.77 97.5628 43.48H85.5628ZM118.683 76H134.163V64H118.683V76ZM189.058 22.36H195.058V16.36H189.058V22.36ZM174.298 68.44L177.19 73.6973L179.612 72.365L180.173 69.658L174.298 68.44ZM176.338 58.6H182.338L170.463 57.382L176.338 58.6ZM176.338 70H170.338V76H176.338V70ZM189.058 70V76H195.058V70H189.058ZM176.338 53.56L181.198 57.0791L182.338 55.5043V53.56H176.338ZM176.338 34H182.338V28H176.338V34ZM189.058 16.36H168.898V28.36H189.058V16.36ZM168.898 16.36C159 16.36 150.577 19.2223 144.572 24.7822C138.527 30.3783 135.538 38.1522 135.538 46.72H147.538C147.538 41.0078 149.469 36.6017 152.724 33.5878C156.019 30.5377 161.276 28.36 168.898 28.36V16.36ZM135.538 46.72C135.538 62.8731 148.189 76.72 164.818 76.72V64.72C155.287 64.72 147.538 56.7269 147.538 46.72H135.538ZM164.818 76.72C169.652 76.72 173.889 75.5125 177.19 73.6973L171.407 63.1827C169.907 64.0075 167.664 64.72 164.818 64.72V76.72ZM180.173 69.658L182.213 59.818L170.463 57.382L168.423 67.222L180.173 69.658ZM170.338 58.6V70H182.338V58.6H170.338ZM176.338 76H189.058V64H176.338V76ZM195.058 70V22.36H183.058V70H195.058ZM171.478 50.0409C170.322 51.6386 168.853 52.48 165.778 52.48V64.48C171.824 64.48 177.315 62.4414 181.198 57.0791L171.478 50.0409ZM165.778 52.48C163.266 52.48 160.978 50.4606 160.978 46.84H148.978C148.978 55.6994 155.33 64.48 165.778 64.48V52.48ZM160.978 46.84C160.978 44.5067 161.739 42.9436 162.768 41.9539C163.806 40.9549 165.685 40 168.898 40V28C163.231 28 158.15 29.7451 154.448 33.3061C150.737 36.8764 148.978 41.7333 148.978 46.84H160.978ZM168.898 40H176.338V28H168.898V40ZM170.338 34V53.56H182.338V34H170.338ZM251.043 44.08V50.08H257.679L257.012 43.4776L251.043 44.08ZM251.163 47.92L257.155 48.2354L257.487 41.92H251.163V47.92ZM237.843 47.92V41.92H232.346L231.866 47.3957L237.843 47.92ZM237.603 44.08L231.687 45.0845L232.536 50.08H237.603V44.08ZM257.012 43.4776C255.367 27.1764 241.364 15.16 225.003 15.16V27.16C235.522 27.16 244.078 34.8236 245.073 44.6824L257.012 43.4776ZM225.003 15.16C207.629 15.16 192.843 28.7902 192.843 46.6H204.843C204.843 35.8498 213.816 27.16 225.003 27.16V15.16ZM192.843 46.6C192.843 64.4098 207.629 78.04 225.003 78.04V66.04C213.816 66.04 204.843 57.3502 204.843 46.6H192.843ZM225.003 78.04C241.788 78.04 256.256 65.3033 257.155 48.2354L245.171 47.6046C244.629 57.8967 235.817 66.04 225.003 66.04V78.04ZM251.163 41.92H237.843V53.92H251.163V41.92ZM231.866 47.3957C231.489 51.6957 228.322 54.52 225.003 54.52V66.52C235.604 66.52 242.997 57.8243 243.82 48.4443L231.866 47.3957ZM225.003 54.52C221.49 54.52 218.163 51.3754 218.163 46.6H206.163C206.163 56.7046 213.635 66.52 225.003 66.52V54.52ZM218.163 46.6C218.163 41.8246 221.49 38.68 225.003 38.68V26.68C213.635 26.68 206.163 36.4954 206.163 46.6H218.163ZM225.003 38.68C228.146 38.68 231.003 41.0528 231.687 45.0845L243.518 43.0755C242.043 34.3872 235.059 26.68 225.003 26.68V38.68ZM237.603 50.08H251.043V38.08H237.603V50.08ZM273.483 23.2L270.591 17.9427L268.126 19.2989L267.592 22.0619L273.483 23.2ZM271.443 33.76H265.443L277.334 34.898L271.443 33.76ZM271.443 2.56H277.443V-3.44H271.443V2.56ZM258.723 2.56V-3.44H252.723V2.56H258.723ZM258.723 70H252.723V76H258.723V70ZM271.443 70V76H277.443V70H271.443ZM291.843 70H285.843V76H291.843V70ZM304.563 70V76H310.563V70H304.563ZM310.563 40.72C310.563 34.5652 308.671 28.126 304.133 23.1581C299.498 18.0853 292.662 15.16 284.043 15.16V27.16C289.823 27.16 293.248 29.0347 295.273 31.2519C297.394 33.5739 298.563 36.9148 298.563 40.72H310.563ZM284.043 15.16C279.828 15.16 274.304 15.9008 270.591 17.9427L276.374 28.4573C277.462 27.8592 280.578 27.16 284.043 27.16V15.16ZM267.592 22.0619L265.552 32.6219L277.334 34.898L279.374 24.338L267.592 22.0619ZM277.443 33.76V2.56H265.443V33.76H277.443ZM271.443 -3.44H258.723V8.56H271.443V-3.44ZM252.723 2.56V70H264.723V2.56H252.723ZM258.723 76H271.443V64H258.723V76ZM277.443 70V43.12H265.443V70H277.443ZM277.443 43.12C277.443 42.6454 277.738 41.6794 278.897 40.6552C280.05 39.6355 281.411 39.16 282.363 39.16V27.16C278.035 27.16 273.935 29.0245 270.949 31.6648C267.967 34.3006 265.443 38.3146 265.443 43.12H277.443ZM282.363 39.16C284.329 39.16 285.843 40.6737 285.843 42.64H297.843C297.843 34.0463 290.957 27.16 282.363 27.16V39.16ZM285.843 42.64V70H297.843V42.64H285.843ZM291.843 76H304.563V64H291.843V76ZM310.563 70V40.72H298.563V70H310.563Z" fill="#F17F31" fill-opacity="0.21"/>
</svg>
    
